<?xml version="1.0" encoding="utf-8"?>
<!-- Generator: Adobe Illustrator 16.0.3, SVG Export Plug-In . SVG Version: 6.00 Build 0)  -->
<!DOCTYPE svg PUBLIC "-//W3C//DTD SVG 1.1//EN" "http://www.w3.org/Graphics/SVG/1.1/DTD/svg11.dtd">
<svg version="1.1" id="Capa_1" xmlns="http://www.w3.org/2000/svg" xmlns:xlink="http://www.w3.org/1999/xlink" x="0px" y="0px"
	 width="282.983px" height="200px" viewBox="0 0 282.983 200" enable-background="new 0 0 282.983 200" xml:space="preserve">
<path fill="#002F6D" d="M282.983,96.315c0-50.984-63.342-92.542-141.484-92.542C63.36,3.773,0.017,45.332,0.017,96.315
	C0.017,97.63,0,101.27,0,101.732c0,54.086,55.365,97.893,141.479,97.893c86.648,0,141.504-43.795,141.504-97.881V96.315z"/>
<path fill="#FFE900" d="M277.565,96.27c0,48.064-60.908,87.028-136.041,87.028c-75.136,0-136.037-38.964-136.037-87.028
	c0-48.069,60.901-87.035,136.037-87.035C216.657,9.235,277.565,48.201,277.565,96.27z"/>
<path fill="#FFFFFF" d="M96.353,68.812c-0.073,0.137-1.429,1.542-0.55,2.669c2.149,2.743,8.777,4.314,15.482,2.812
	c3.994-0.897,9.108-4.969,14.068-8.901c5.372-4.269,10.704-8.542,16.063-10.243c5.673-1.805,9.308-1.032,11.709-0.304
	c2.636,0.786,5.732,2.52,10.675,6.228c9.308,6.998,46.743,39.667,53.207,45.32c5.208-2.355,28.352-12.32,59.81-19.254
	c-2.73-16.771-12.936-32.112-28.405-44.676c-21.559,9.056-47.912,13.781-73.681,1.197c-0.131-0.055-14.079-6.656-27.836-6.331
	c-20.443,0.473-29.298,9.323-38.675,18.69L96.353,68.812z"/>
<path fill="#FFFFFF" d="M215.485,109.943c-0.437-0.391-44.013-38.516-53.881-45.936c-5.713-4.284-8.892-5.377-12.228-5.802
	c-1.736-0.225-4.137,0.098-5.813,0.556c-4.592,1.25-10.596,5.264-15.927,9.491c-5.521,4.396-10.723,8.536-15.553,9.617
	c-6.167,1.383-13.702-0.249-17.139-2.573c-1.396-0.936-2.375-2.019-2.847-3.119c-1.268-2.945,1.076-5.298,1.459-5.693l12.024-13.005
	c1.395-1.395,2.804-2.791,4.245-4.165c-3.881,0.505-7.465,1.496-10.956,2.468c-4.356,1.226-8.546,2.39-12.785,2.388
	c-1.771,0-11.255-1.555-13.053-2.044c-10.881-2.979-20.432-5.879-34.699-12.538C21.241,52.313,9.808,68.223,6.508,85.749
	c2.454,0.65,6.414,1.828,8.074,2.197c38.683,8.602,50.733,17.462,52.917,19.309c2.367-2.629,5.779-4.297,9.589-4.297
	c4.283,0.005,8.139,2.155,10.481,5.478c2.217-1.748,5.272-3.244,9.221-3.242c1.793,0,3.656,0.332,5.535,0.971
	c4.362,1.498,6.614,4.402,7.784,7.031c1.463-0.66,3.264-1.147,5.383-1.141c2.083,0,4.249,0.473,6.433,1.42
	c7.132,3.06,8.244,10.065,7.595,15.348c0.509-0.061,1.02-0.082,1.539-0.082c8.456,0.004,15.332,6.878,15.332,15.339
	c0,2.616-0.67,5.08-1.832,7.239c2.298,1.293,8.165,4.222,13.314,3.57c4.114-0.523,5.675-1.926,6.236-2.718
	c0.383-0.543,0.788-1.177,0.408-1.633l-10.913-12.126c0,0-1.797-1.7-1.203-2.357c0.616-0.675,1.723,0.293,2.511,0.952
	c5.556,4.64,12.337,11.642,12.337,11.642c0.114,0.074,0.566,0.959,3.072,1.408c2.162,0.387,5.98,0.164,8.628-2.007
	c0.667-0.551,1.335-1.239,1.892-1.942c-0.041,0.029-0.08,0.08-0.12,0.097c2.791-3.573-0.31-7.187-0.31-7.187l-12.744-14.31
	c0,0-1.82-1.685-1.203-2.362c0.556-0.588,1.728,0.299,2.525,0.963c4.038,3.375,9.739,9.098,15.199,14.446
	c1.064,0.784,5.871,3.749,12.225-0.427c3.863-2.525,4.636-5.637,4.527-7.982c-0.268-3.104-2.692-5.318-2.692-5.318l-17.407-17.5
	c0,0-1.837-1.571-1.185-2.365c0.527-0.667,1.725,0.296,2.505,0.951c5.547,4.639,20.559,18.4,20.559,18.4
	c0.209,0.152,5.397,3.844,11.807-0.236c2.292-1.465,3.756-3.674,3.88-6.238C218.627,112.586,215.485,109.943,215.485,109.943z"/>
<path fill="#FFFFFF" d="M131.058,132.128c-2.699-0.032-5.654,1.572-6.04,1.339c-0.211-0.143,0.166-1.227,0.42-1.85
	c0.258-0.624,3.813-11.318-4.851-15.032c-6.631-2.849-10.68,0.354-12.075,1.802c-0.366,0.381-0.529,0.35-0.57-0.135
	c-0.134-1.924-0.995-7.135-6.72-8.877c-8.177-2.508-13.435,3.202-14.77,5.262c-0.596-4.66-4.539-8.279-9.367-8.285
	c-5.244-0.004-9.496,4.244-9.502,9.488c-0.001,5.243,4.248,9.493,9.495,9.493c2.547,0.008,4.86-1.013,6.563-2.647
	c0.053,0.047,0.075,0.137,0.047,0.318c-0.399,2.348-1.133,10.881,7.8,14.354c3.584,1.39,6.631,0.357,9.156-1.414
	c0.756-0.532,0.876-0.311,0.769,0.4c-0.324,2.196,0.086,6.893,6.672,9.561c5.012,2.035,7.978-0.049,9.92-1.844
	c0.846-0.773,1.078-0.646,1.12,0.547c0.239,6.353,5.515,11.393,11.92,11.396c6.599,0.004,11.946-5.332,11.952-11.925
	C143.002,137.479,137.655,132.201,131.058,132.128z"/>
<path fill="#002F6D" d="M131.058,155.154c-5.982-0.008-10.843-4.649-11.062-10.572c-0.018-0.512-0.069-1.859-1.21-1.859
	c-0.471,0-0.878,0.28-1.348,0.703c-1.315,1.221-2.991,2.459-5.436,2.459c-1.112,0-2.314-0.256-3.584-0.777
	c-6.318-2.557-6.403-6.896-6.144-8.641c0.068-0.466,0.09-0.947-0.228-1.328l-0.386-0.346h-0.396c-0.322,0-0.65,0.132-1.1,0.449
	c-1.829,1.279-3.579,1.904-5.361,1.904c-0.979,0-1.984-0.196-2.995-0.584c-8.313-3.237-7.656-11.088-7.25-13.449
	c0.062-0.479-0.059-0.85-0.363-1.096l-0.588-0.484l-0.549,0.527c-1.62,1.563-3.741,2.414-5.969,2.414
	c-4.761-0.004-8.637-3.875-8.635-8.634c0.004-4.769,3.883-8.634,8.648-8.628c4.303,0,7.968,3.237,8.519,7.536l0.293,2.317
	l1.273-1.959c0.144-0.232,3.632-5.508,10.049-5.502c1.219,0,2.48,0.197,3.748,0.588c5.114,1.562,5.98,6.199,6.115,8.129
	c0.091,1.129,0.892,1.18,1.048,1.18c0.441,0,0.768-0.277,0.997-0.523c0.966-1.006,3.068-2.68,6.359-2.68
	c1.503,0.004,3.105,0.359,4.76,1.072c8.128,3.486,4.441,13.814,4.397,13.924c-0.7,1.712-0.725,2.467-0.069,2.904l0.321,0.15h0.234
	c0.368,0,0.824-0.158,1.576-0.412c1.106-0.383,2.777-0.961,4.337-0.957h0.004c6.12,0.069,11.096,5.049,11.092,11.098
	C142.147,150.189,137.17,155.154,131.058,155.154z M217.168,105.381c-13.42-11.716-44.44-38.683-52.84-44.991
	c-4.801-3.608-8.074-5.515-10.948-6.372c-1.293-0.389-3.077-0.833-5.377-0.836c-2.14,0-4.433,0.387-6.829,1.149
	c-5.428,1.717-10.838,6.017-16.07,10.174l-0.269,0.213c-4.875,3.874-9.912,7.881-13.723,8.732c-1.662,0.375-3.373,0.569-5.082,0.569
	c-4.267-0.006-8.103-1.236-9.542-3.072c-0.237-0.303-0.084-0.795,0.471-1.5l0.072-0.095l11.807-12.724
	c9.25-9.248,17.985-17.979,38.09-18.443c0.335-0.008,0.674-0.014,1.007-0.014c12.513,0.008,25.025,5.611,26.428,6.26
	c11.737,5.721,23.849,8.631,36.028,8.641c12.689,0.004,25.781-3.137,39.549-9.477c-1.537-1.295-3.14-2.551-4.785-3.787
	c-12.093,5.244-23.616,7.895-34.729,7.889c-11.355-0.009-22.703-2.736-33.716-8.109c-0.58-0.277-14.396-6.791-28.768-6.799
	c-0.376,0-0.762,0.008-1.136,0.012c-16.89,0.395-26.404,6.395-32.8,11.648c-6.223,0.149-11.591,1.652-16.367,2.985
	c-4.262,1.184-7.943,2.213-11.534,2.209c-1.477,0-4.14-0.135-4.38-0.143c-4.128-0.127-24.922-5.228-41.468-11.49
	c-1.689,1.195-3.315,2.43-4.897,3.687c17.283,7.086,38.316,12.566,44.953,12.997c1.846,0.12,3.815,0.33,5.784,0.333
	c4.392,0,8.771-1.233,13.016-2.418c2.504-0.706,5.27-1.47,8.174-2.027c-0.774,0.76-1.548,1.533-2.322,2.314l-12,12.976
	c-0.947,0.952-2.992,3.498-1.643,6.631c0.537,1.264,1.628,2.472,3.152,3.501c2.861,1.924,7.98,3.225,12.735,3.229
	c1.802,0,3.509-0.179,5.08-0.532c5.028-1.129,10.302-5.33,15.89-9.772c4.454-3.539,10.78-8.031,15.624-9.35
	c1.351-0.369,3.011-0.596,4.35-0.596c0.398,0.003,0.773,0.015,1.126,0.064c3.199,0.406,6.294,1.496,11.818,5.641
	c9.844,7.397,53.425,45.518,53.849,45.895c0.033,0.025,2.808,2.424,2.615,6.407c-0.103,2.22-1.338,4.194-3.48,5.565
	c-1.86,1.176-3.78,1.778-5.722,1.778c-2.913-0.007-4.917-1.372-5.046-1.464c-0.16-0.131-15.091-13.822-20.583-18.419
	c-0.877-0.726-1.725-1.377-2.588-1.377c-0.459-0.004-0.865,0.192-1.14,0.537c-0.864,1.063,0.104,2.538,1.244,3.508l17.444,17.53
	c0.021,0.021,2.169,2.037,2.407,4.726c0.136,2.907-1.251,5.335-4.14,7.231c-2.059,1.353-4.144,2.041-6.183,2.041
	c-2.677,0-4.557-1.221-4.972-1.508l-2.504-2.465c-4.572-4.5-9.293-9.152-12.748-12.037c-0.843-0.699-1.744-1.346-2.603-1.346
	c-0.42,0-0.804,0.158-1.097,0.467c-0.396,0.438-0.668,1.225,0.313,2.531c0.403,0.537,0.879,0.982,0.879,0.982l12.731,14.291
	c0.105,0.127,2.622,3.119,0.284,6.103l-0.447,0.567c-0.381,0.425-0.793,0.811-1.184,1.139c-2.169,1.784-5.071,1.977-6.217,1.977
	c-0.618,0-1.21-0.055-1.726-0.146c-1.253-0.228-2.097-0.577-2.504-1.062l-0.156-0.155c-0.694-0.724-7.11-7.271-12.418-11.7
	c-0.7-0.587-1.571-1.328-2.475-1.328c-0.444,0-0.844,0.174-1.148,0.514c-1.052,1.152,0.528,2.871,1.196,3.502l10.856,11.97
	c-0.013,0.108-0.152,0.356-0.415,0.735c-0.389,0.533-1.705,1.85-5.644,2.35c-0.469,0.059-0.957,0.084-1.437,0.084
	c-4.061,0-8.391-1.971-10.624-3.156c1.015-2.146,1.541-4.506,1.541-6.881c0.007-8.936-7.249-16.199-16.184-16.207
	c-0.189,0-0.392,0.008-0.585,0.016c0.293-4.08-0.283-11.804-8.211-15.205c-2.28-0.988-4.557-1.49-6.769-1.49
	c-1.731,0-3.395,0.295-4.965,0.898c-1.64-3.191-4.368-5.517-7.927-6.732c-1.964-0.68-3.92-1.022-5.81-1.022
	c-3.299,0-6.339,0.968-9.051,2.897c-2.596-3.227-6.521-5.143-10.653-5.143c-3.613,0-7.092,1.448-9.668,4
	C64.056,103.514,50.652,95,14.782,86.855c-1.737-0.394-5.724-1.538-8.168-2.252C6.208,86.544,5.9,88.509,5.696,90.49
	c0,0,6.617,1.584,7.919,1.875c36.644,8.14,48.752,16.604,50.8,18.202c-0.692,1.664-1.053,3.463-1.058,5.274
	c-0.004,7.565,6.152,13.733,13.728,13.741c0.851,0,1.692-0.072,2.521-0.227c1.14,5.569,4.784,9.793,10.357,11.959
	c1.625,0.627,3.274,0.947,4.891,0.947c1.044,0.004,2.099-0.127,3.126-0.389c1.028,2.613,3.347,5.87,8.521,7.973
	c1.812,0.731,3.628,1.113,5.393,1.113c1.44,0,2.851-0.25,4.194-0.75c2.481,6.042,8.381,10.048,14.964,10.048
	c4.36,0.005,8.548-1.772,11.602-4.916c2.612,1.454,8.135,4.08,13.707,4.093c0.723,0,1.401-0.052,2.076-0.137
	c5.537-0.699,8.116-2.861,9.299-4.547c0.212-0.292,0.405-0.605,0.569-0.928c1.309,0.373,2.747,0.68,4.392,0.684
	c3.024,0,5.925-1.029,8.861-3.165c2.882-2.084,4.931-5.063,5.224-7.604c0.006-0.033,0.015-0.073,0.019-0.11
	c0.968,0.201,1.965,0.308,2.963,0.308c3.112,0,6.172-0.975,9.098-2.889c5.646-3.701,6.627-8.538,6.534-11.699
	c0.989,0.207,1.998,0.313,3,0.313c2.925,0,5.794-0.882,8.53-2.626c3.498-2.236,5.603-5.66,5.92-9.646
	c0.223-2.709-0.45-5.441-1.877-7.789c9.456-4.076,31.073-11.962,56.527-17.697c-0.154-1.974-0.438-3.923-0.79-5.863
	C245.908,92.873,222.927,102.818,217.168,105.381z"/>
</svg>
