<svg width="49" height="49" viewBox="0 0 49 49" fill="none" xmlns="http://www.w3.org/2000/svg">
<g clip-path="url(#clip0_245_2976)">
<path d="M7.52051 23.4727C14.5101 26.6726 19.664 33.1876 21.1035 40.9697" stroke="#3483FA" stroke-miterlimit="10"/>
<path d="M41.4794 23.4727C34.4899 26.6726 29.3359 33.1876 27.8965 40.9697" stroke="#3483FA" stroke-miterlimit="10"/>
<path d="M8.58984 18.3086C8.58984 18.3086 16.5635 17.3086 24.5007 17.3086C32.438 17.3086 40.4113 18.3086 40.4113 18.3086" stroke="#3483FA" stroke-miterlimit="10"/>
<path d="M24.5 46.3086C36.6503 46.3086 46.5 36.4589 46.5 24.3086C46.5 12.1583 36.6503 2.30859 24.5 2.30859C12.3497 2.30859 2.5 12.1583 2.5 24.3086C2.5 36.4589 12.3497 46.3086 24.5 46.3086Z" stroke="#3483FA" stroke-miterlimit="10" stroke-linecap="square"/>
<path d="M24.5 41.3086C33.8888 41.3086 41.5 33.6974 41.5 24.3086C41.5 14.9198 33.8888 7.30859 24.5 7.30859C15.1112 7.30859 7.5 14.9198 7.5 24.3086C7.5 33.6974 15.1112 41.3086 24.5 41.3086Z" stroke="#3483FA" stroke-miterlimit="10" stroke-linecap="square"/>
<path d="M24.5 30.3086C26.7091 30.3086 28.5 28.5177 28.5 26.3086C28.5 24.0995 26.7091 22.3086 24.5 22.3086C22.2909 22.3086 20.5 24.0995 20.5 26.3086C20.5 28.5177 22.2909 30.3086 24.5 30.3086Z" stroke="#3483FA" stroke-miterlimit="10" stroke-linecap="square"/>
</g>
<defs>
<clipPath id="clip0_245_2976">
<rect width="48" height="48" fill="white" transform="translate(0.5 0.308594)"/>
</clipPath>
</defs>
</svg>
