<svg width="49" height="49" viewBox="0 0 49 49" fill="none" xmlns="http://www.w3.org/2000/svg">
<g clip-path="url(#clip0_245_2882)">
<path d="M24.5 32.3086C18.977 32.3086 14.5 27.8316 14.5 22.3086V12.3086C14.5 6.78559 18.977 2.30859 24.5 2.30859C30.023 2.30859 34.5 6.78559 34.5 12.3086V22.3086C34.5 27.8316 30.023 32.3086 24.5 32.3086Z" stroke="#3483FA" stroke-miterlimit="10" stroke-linecap="square"/>
<path d="M14.5 46.3086H34.5" stroke="#3483FA" stroke-miterlimit="10" stroke-linecap="square"/>
<path d="M24.5 38.3086V46.3086" stroke="#3483FA" stroke-miterlimit="10" stroke-linecap="square"/>
<path d="M40.5 22.3086C40.5 31.1456 33.337 38.3086 24.5 38.3086C15.663 38.3086 8.5 31.1456 8.5 22.3086" stroke="#3483FA" stroke-miterlimit="10" stroke-linecap="square"/>
<path d="M14.5 14.3086H19.5" stroke="#3483FA" stroke-miterlimit="10" stroke-linecap="square"/>
<path d="M14.5 21.3086H19.5" stroke="#3483FA" stroke-miterlimit="10" stroke-linecap="square"/>
<path d="M29.5 14.3086H34.5" stroke="#3483FA" stroke-miterlimit="10" stroke-linecap="square"/>
<path d="M29.5 21.3086H34.5" stroke="#3483FA" stroke-miterlimit="10" stroke-linecap="square"/>
</g>
<defs>
<clipPath id="clip0_245_2882">
<rect width="48" height="48" fill="white" transform="translate(0.5 0.308594)"/>
</clipPath>
</defs>
</svg>
