<svg width="49" height="49" viewBox="0 0 49 49" fill="none" xmlns="http://www.w3.org/2000/svg">
    <g clip-path="url(#clip0_245_2842)">
        <path
            d="M42.5 20.3086L40.731 7.04459C40.599 6.05059 39.751 5.30859 38.749 5.30859H10.251C9.249 5.30859 8.401 6.05059 8.269 7.04459L6.5 20.3086"
            stroke="#3483FA" stroke-miterlimit="10" />
        <path d="M14.5 37.3086V43.3086H5.5V37.3086" stroke="#3483FA" stroke-miterlimit="10" stroke-linecap="square" />
        <path d="M43.5 37.3086V43.3086H34.5V37.3086" stroke="#3483FA" stroke-miterlimit="10" stroke-linecap="square" />
        <path
            d="M46.5 37.3086H2.5V26.7116C2.5 25.8036 2.809 24.9216 3.377 24.2126L6.5 20.3086H42.5L45.623 24.2126C46.191 24.9226 46.5 25.8036 46.5 26.7116V37.3086Z"
            stroke="#3483FA" stroke-miterlimit="10" stroke-linecap="square" />
        <path
            d="M38.5 32.3086C40.1569 32.3086 41.5 30.9654 41.5 29.3086C41.5 27.6517 40.1569 26.3086 38.5 26.3086C36.8431 26.3086 35.5 27.6517 35.5 29.3086C35.5 30.9654 36.8431 32.3086 38.5 32.3086Z"
            stroke="#3483FA" stroke-miterlimit="10" stroke-linecap="square" />
        <path
            d="M10.5 32.3086C12.1569 32.3086 13.5 30.9654 13.5 29.3086C13.5 27.6517 12.1569 26.3086 10.5 26.3086C8.84315 26.3086 7.5 27.6517 7.5 29.3086C7.5 30.9654 8.84315 32.3086 10.5 32.3086Z"
            stroke="#3483FA" stroke-miterlimit="10" stroke-linecap="square" />
        <path d="M21.5 29.3086H27.5" stroke="#3483FA" stroke-miterlimit="10" stroke-linecap="square" />
    </g>
    <defs>
        <clipPath id="clip0_245_2842">
            <rect width="48" height="48" fill="white" transform="translate(0.5 0.308594)" />
        </clipPath>
    </defs>
</svg>