<svg width="49" height="49" viewBox="0 0 49 49" fill="none" xmlns="http://www.w3.org/2000/svg">
<g clip-path="url(#clip0_245_2901)">
<path d="M46.5 2.30859H2.5V46.3086H46.5V2.30859Z" stroke="#3483FA" stroke-miterlimit="10" stroke-linecap="square"/>
<path d="M39.5 18.3086H9.5V39.3086H39.5V18.3086Z" stroke="#3483FA" stroke-miterlimit="10" stroke-linecap="square"/>
<path d="M30.5 26.3086V28.3086H18.5V26.3086" stroke="#3483FA" stroke-miterlimit="10" stroke-linecap="square"/>
<path d="M24.5 12.3086C25.6046 12.3086 26.5 11.4132 26.5 10.3086C26.5 9.20402 25.6046 8.30859 24.5 8.30859C23.3954 8.30859 22.5 9.20402 22.5 10.3086C22.5 11.4132 23.3954 12.3086 24.5 12.3086Z" stroke="#3483FA" stroke-miterlimit="10" stroke-linecap="square"/>
<path d="M11.5 12.3086C12.6046 12.3086 13.5 11.4132 13.5 10.3086C13.5 9.20402 12.6046 8.30859 11.5 8.30859C10.3954 8.30859 9.5 9.20402 9.5 10.3086C9.5 11.4132 10.3954 12.3086 11.5 12.3086Z" stroke="#3483FA" stroke-miterlimit="10" stroke-linecap="square"/>
<path d="M37.5 12.3086C38.6046 12.3086 39.5 11.4132 39.5 10.3086C39.5 9.20402 38.6046 8.30859 37.5 8.30859C36.3954 8.30859 35.5 9.20402 35.5 10.3086C35.5 11.4132 36.3954 12.3086 37.5 12.3086Z" stroke="#3483FA" stroke-miterlimit="10" stroke-linecap="square"/>
</g>
<defs>
<clipPath id="clip0_245_2901">
<rect width="48" height="48" fill="white" transform="translate(0.5 0.308594)"/>
</clipPath>
</defs>
</svg>
