<svg width="49" height="49" viewBox="0 0 49 49" fill="none" xmlns="http://www.w3.org/2000/svg">
<g clip-path="url(#clip0_245_3040)">
<path d="M12.5 40.3086H36.5" stroke="#3483FA" stroke-miterlimit="10" stroke-linecap="square"/>
<path d="M24.5 40.3086V32.3086" stroke="#3483FA" stroke-miterlimit="10" stroke-linecap="square"/>
<path d="M14.7 10.6086C14 10.4086 13.2 10.3086 12.5 10.3086C7 10.3086 2.5 14.8086 2.5 20.3086C2.5 25.8086 7 30.3086 12.5 30.3086V46.3086H36.5V30.3086C42 30.3086 46.5 25.8086 46.5 20.3086C46.5 14.8086 42 10.3086 36.5 10.3086C35.8 10.3086 35 10.4086 34.3 10.6086" stroke="#3483FA" stroke-miterlimit="10"/>
<path d="M15.3 16.3086C14.8 15.1086 14.5 13.7086 14.5 12.3086C14.5 6.80859 19 2.30859 24.5 2.30859C30 2.30859 34.5 6.80859 34.5 12.3086C34.5 13.7086 34.2 15.1086 33.7 16.3086" stroke="#3483FA" stroke-miterlimit="10" stroke-linecap="square"/>
</g>
<defs>
<clipPath id="clip0_245_3040">
<rect width="48" height="48" fill="white" transform="translate(0.5 0.308594)"/>
</clipPath>
</defs>
</svg>
