<svg width="49" height="49" viewBox="0 0 49 49" fill="none" xmlns="http://www.w3.org/2000/svg">
<g clip-path="url(#clip0_245_2927)">
<path d="M16.5 3.80859L24.5 9.80859L32.5 3.80859" stroke="#3483FA" stroke-miterlimit="10"/>
<path d="M2.5 25.6082L10.7 19.8082L7.5 10.4082" stroke="#3483FA" stroke-miterlimit="10"/>
<path d="M18.9 45.6078L16 36.0078L6 36.2078" stroke="#3483FA" stroke-miterlimit="10"/>
<path d="M42.9996 36.2078L32.9996 36.0078L30.0996 45.6078" stroke="#3483FA" stroke-miterlimit="10"/>
<path d="M41.4998 10.4082L38.2998 19.8082L46.4998 25.6082" stroke="#3483FA" stroke-miterlimit="10"/>
<path d="M28.5 30.3086H20.5L16.5 22.3086L24.5 16.3086L32.5 22.3086L28.5 30.3086Z" stroke="#3483FA" stroke-miterlimit="10" stroke-linecap="square"/>
<path d="M24.5 46.3086C36.6503 46.3086 46.5 36.4589 46.5 24.3086C46.5 12.1583 36.6503 2.30859 24.5 2.30859C12.3497 2.30859 2.5 12.1583 2.5 24.3086C2.5 36.4589 12.3497 46.3086 24.5 46.3086Z" stroke="#3483FA" stroke-miterlimit="10" stroke-linecap="square"/>
</g>
<defs>
<clipPath id="clip0_245_2927">
<rect width="48" height="48" fill="white" transform="translate(0.5 0.308594)"/>
</clipPath>
</defs>
</svg>
