<svg width="49" height="49" viewBox="0 0 49 49" fill="none" xmlns="http://www.w3.org/2000/svg">
<g clip-path="url(#clip0_245_3023)">
<path d="M24.5 46.3086C35.5457 46.3086 44.5 37.3543 44.5 26.3086C44.5 15.2629 35.5457 6.30859 24.5 6.30859C13.4543 6.30859 4.5 15.2629 4.5 26.3086C4.5 37.3543 13.4543 46.3086 24.5 46.3086Z" stroke="#3483FA" stroke-miterlimit="10" stroke-linecap="square"/>
<path d="M24.5 33.3086L27.5 29.3086H21.5L24.5 33.3086Z" stroke="#3483FA" stroke-miterlimit="10" stroke-linecap="square"/>
<path d="M24.5 33.3086L27.5 29.3086H21.5L24.5 33.3086Z" fill="#3483FA"/>
<path d="M24.5 33.3086V37.3086" stroke="#3483FA" stroke-miterlimit="10" stroke-linecap="square"/>
<path d="M20.5 37.3086H28.5" stroke="#3483FA" stroke-miterlimit="10" stroke-linecap="square"/>
<path d="M17.5 24.3086C18.6046 24.3086 19.5 23.4132 19.5 22.3086C19.5 21.204 18.6046 20.3086 17.5 20.3086C16.3954 20.3086 15.5 21.204 15.5 22.3086C15.5 23.4132 16.3954 24.3086 17.5 24.3086Z" fill="#3483FA"/>
<path d="M31.5 24.3086C32.6046 24.3086 33.5 23.4132 33.5 22.3086C33.5 21.204 32.6046 20.3086 31.5 20.3086C30.3954 20.3086 29.5 21.204 29.5 22.3086C29.5 23.4132 30.3954 24.3086 31.5 24.3086Z" fill="#3483FA"/>
<path d="M14.442 9.01859C14.471 8.77959 14.5 8.55559 14.5 8.30859C14.5 4.99459 11.814 2.30859 8.5 2.30859C5.186 2.30859 2.5 4.99459 2.5 8.30859C2.5 11.6226 5.186 14.3086 8.5 14.3086" stroke="#3483FA" stroke-miterlimit="10"/>
<path d="M34.558 9.01859C34.529 8.77959 34.5 8.55559 34.5 8.30859C34.5 4.99459 37.186 2.30859 40.5 2.30859C43.814 2.30859 46.5 4.99459 46.5 8.30859C46.5 11.6226 43.814 14.3086 40.5 14.3086" stroke="#3483FA" stroke-miterlimit="10"/>
</g>
<defs>
<clipPath id="clip0_245_3023">
<rect width="48" height="48" fill="white" transform="translate(0.5 0.308594)"/>
</clipPath>
</defs>
</svg>
