<svg width="49" height="49" viewBox="0 0 49 49" fill="none" xmlns="http://www.w3.org/2000/svg">
<g clip-path="url(#clip0_245_2942)">
<path d="M8.5 46.3086V42.3086" stroke="#3483FA" stroke-miterlimit="10" stroke-linecap="square"/>
<path d="M40.5 46.3086V42.3086" stroke="#3483FA" stroke-miterlimit="10" stroke-linecap="square"/>
<path d="M40.5 23.4086V6.30859C40.5 4.10859 38.7 2.30859 36.5 2.30859H12.5C10.3 2.30859 8.5 4.10859 8.5 6.30859V23.4086" stroke="#3483FA" stroke-miterlimit="10"/>
<path d="M46.5 42.3086V28.3086C46.5 25.5086 44.3 23.3086 41.5 23.3086C38.7 23.3086 36.5 25.5086 36.5 28.3086V32.3086H12.5V28.3086C12.5 25.5086 10.3 23.3086 7.5 23.3086C4.7 23.3086 2.5 25.5086 2.5 28.3086V42.3086H46.5Z" stroke="#3483FA" stroke-miterlimit="10" stroke-linecap="square"/>
</g>
<defs>
<clipPath id="clip0_245_2942">
<rect width="48" height="48" fill="white" transform="translate(0.5 0.308594)"/>
</clipPath>
</defs>
</svg>
